<svg width="913" height="647" viewBox="0 0 913 647" fill="none" xmlns="http://www.w3.org/2000/svg">
<g clip-path="url(#clip0_56_17)">
<path opacity="0.1" d="M722.114 555.197C825.584 555.197 909.463 538.893 909.463 518.781C909.463 498.669 825.584 482.365 722.114 482.365C618.644 482.365 534.765 498.669 534.765 518.781C534.765 538.893 618.644 555.197 722.114 555.197Z" fill="#6C63FF"/>
<g opacity="0.5">
<path d="M561.64 91.8029C559.114 92.521 556.02 94.3914 554.496 99.5064C551.509 109.532 558.449 116.349 556.162 126.801C555.528 129.573 554.32 132.182 552.617 134.46C549.825 138.245 546.793 140.036 543.85 142.686C540.117 146.073 537.442 150.465 536.147 155.336C534.728 160.712 534.61 166.349 535.802 171.78C536.848 176.319 538.629 179.626 540.189 183.304C542.129 187.997 543.645 192.853 544.719 197.816C545.308 200.233 545.641 202.705 545.712 205.191C545.668 208.495 545.371 211.791 544.825 215.049L540.579 244.675C539.934 248.548 539.547 252.46 539.418 256.385C539.474 260.319 539.928 264.236 540.774 268.078C542.264 275.914 543.868 284.034 547.281 288.183C550.693 292.332 556.508 290.842 560.08 282.447C563.475 274.416 563.555 263.699 566.551 255.118C571.275 241.599 580.662 239.782 585.874 226.883C590.874 214.473 589.34 199.332 591.875 185.219C593.648 175.105 597.557 165.885 599.853 155.895C603.15 141.507 602.822 126.57 600.19 115.507C598.187 106.417 593.856 98.004 587.621 91.0937C585.413 88.6559 583.047 86.4841 580.272 86.2625C577.321 86.032 574.741 89.7463 571.825 90.8633C568.457 92.1841 565.071 90.8278 561.64 91.8029Z" fill="#6C63FF"/>
<path d="M577.622 87.0159C577.622 87.0159 572.623 214.969 551.597 290.417" stroke="#535461" stroke-width="2" stroke-miterlimit="10"/>
<path d="M554.372 100.109C554.372 100.109 576.842 120.569 572.578 159.503" stroke="#535461" stroke-width="2" stroke-miterlimit="10"/>
<path d="M535.518 158.333C535.518 158.333 572.401 165.752 569.662 187.817" stroke="#535461" stroke-width="2" stroke-miterlimit="10"/>
<path d="M600.252 115.241C600.252 115.241 585.325 128.308 572.029 165.318" stroke="#535461" stroke-width="2" stroke-miterlimit="10"/>
<path d="M585.671 227.096C585.671 227.096 575.486 235.074 567.313 207.142" stroke="#535461" stroke-width="2" stroke-miterlimit="10"/>
<path d="M541.723 243.416C541.723 243.416 562.491 240.704 564.406 227.699" stroke="#535461" stroke-width="2" stroke-miterlimit="10"/>
</g>
<path d="M611.846 5.98358C606.705 6.74595 600.518 9.13056 597.974 16.4794C592.983 30.8934 608.15 41.8059 604.657 56.867C603.615 61.0118 601.421 64.7768 598.328 67.7263C593.01 72.9654 586.929 75.2525 581.168 78.8072C575.406 82.362 569.423 87.9556 566.719 96.5366C564.122 104.79 565.248 113.903 567.951 120.711C570.655 127.519 574.741 132.598 578.393 138.201C582.831 145.097 586.541 152.435 589.464 160.097C590.938 163.589 591.929 167.266 592.407 171.027C592.877 175.636 592.283 180.592 591.689 185.441L586.415 228.647C585.715 234.392 585.006 240.225 585.405 245.756C585.857 252.13 587.745 257.697 589.606 263.131C593.613 274.85 597.903 287.066 605.464 293.519C613.025 299.973 624.885 298.59 631.276 286.587C637.356 275.161 636.24 259.39 641.425 247.113C649.598 227.761 668.815 226.192 678.06 207.824C686.924 190.201 681.969 167.658 685.532 147.181C688.085 132.51 694.999 119.39 698.545 104.949C703.659 84.1438 701.204 62.115 694.449 45.5557C687.695 28.9964 677.014 17.1886 665.553 8.11998C660.695 4.26383 655.545 0.78 649.775 0.141741C643.641 -0.540842 638.739 4.61842 632.845 5.92153C625.984 7.34875 618.822 4.94641 611.846 5.98358Z" fill="#6C63FF"/>
<path d="M644.359 0.824463C644.359 0.824463 649.199 188.659 614.611 297.278" stroke="#535461" stroke-width="2" stroke-miterlimit="10"/>
<path d="M597.779 17.3838C597.779 17.3838 646.708 50.1832 642.515 107.059" stroke="#535461" stroke-width="2" stroke-miterlimit="10"/>
<path d="M565.664 100.863C565.664 100.863 642.888 116.163 639.838 148.324" stroke="#535461" stroke-width="2" stroke-miterlimit="10"/>
<path d="M694.538 45.0771C694.538 45.0771 665.189 62.5495 642.072 115.472" stroke="#535461" stroke-width="2" stroke-miterlimit="10"/>
<path d="M677.599 208.073C677.599 208.073 657.478 218.71 637.241 176.505" stroke="#535461" stroke-width="2" stroke-miterlimit="10"/>
<path d="M588.578 226.875C588.578 226.875 631.24 225.341 633.669 206.415" stroke="#535461" stroke-width="2" stroke-miterlimit="10"/>
<path d="M59.6103 512.903C59.6103 512.903 67.0384 522.655 56.18 537.281C45.3216 551.908 36.3512 564.336 39.9943 573.485C39.9943 573.485 56.375 546.244 69.7064 545.862C83.0379 545.481 74.2803 529.285 59.6103 512.903Z" fill="#6C63FF"/>
<path opacity="0.1" d="M59.6103 512.903C60.2732 513.84 60.7985 514.867 61.1704 515.953C74.1827 531.236 81.1055 545.499 68.6073 545.862C56.96 546.199 42.9904 567.022 39.6398 572.288C39.7503 572.694 39.8835 573.094 40.0387 573.485C40.0387 573.485 56.4193 546.244 69.7507 545.862C83.0822 545.481 74.2803 529.285 59.6103 512.903Z" fill="black"/>
<path d="M73.4204 525.288C73.4204 528.709 73.0393 531.493 72.5341 531.493C72.0288 531.493 71.6477 528.718 71.6477 525.288C71.6477 521.857 72.1263 523.515 72.5961 523.515C73.0659 523.515 73.4204 521.866 73.4204 525.288Z" fill="#FFD037"/>
<path d="M78.1627 529.365C75.1578 531.005 72.5429 532.025 72.3213 531.573C72.0997 531.12 74.3423 529.489 77.3472 527.858C80.3521 526.227 79.1643 527.415 79.3948 527.858C79.6252 528.301 81.1587 527.725 78.1627 529.365Z" fill="#FFD037"/>
<path d="M20.396 512.903C20.396 512.903 12.968 522.655 23.8264 537.281C34.6848 551.908 43.6374 564.328 40.0121 573.476C40.0121 573.476 23.6314 546.235 10.3 545.854C-3.03148 545.472 5.70841 529.285 20.396 512.903Z" fill="#6C63FF"/>
<path opacity="0.1" d="M20.396 512.903C19.7488 513.843 19.2384 514.87 18.8803 515.953C5.86796 531.236 -1.05481 545.499 11.4434 545.862C23.0907 546.199 37.0604 567.022 40.4109 572.288C40.3004 572.694 40.1672 573.094 40.0121 573.485C40.0121 573.485 23.6314 546.244 10.3 545.862C-3.03148 545.481 5.70841 529.285 20.396 512.903Z" fill="black"/>
<path d="M6.56822 525.288C6.56822 528.709 6.94937 531.493 7.45462 531.493C7.95987 531.493 8.34102 528.718 8.34102 525.288C8.34102 521.857 7.86236 523.515 7.39257 523.515C6.92278 523.515 6.56822 521.866 6.56822 525.288Z" fill="#FFD037"/>
<path d="M1.82599 529.365C4.83088 531.005 7.44575 532.025 7.66735 531.573C7.88895 531.12 5.64637 529.489 2.64147 527.858C-0.363421 526.227 0.824356 527.415 0.593892 527.858C0.363428 528.301 -1.17004 527.725 1.82599 529.365Z" fill="#FFD037"/>
<path d="M8.9349 572.208C8.9349 572.208 29.7032 571.57 35.9612 567.111C42.2192 562.652 67.8716 557.36 69.4582 564.452C71.0449 571.544 100.668 600.008 77.2231 600.194C53.7778 600.381 22.745 596.542 16.4959 592.739C10.2468 588.936 8.9349 572.208 8.9349 572.208Z" fill="#A8A8A8"/>
<path opacity="0.2" d="M77.6397 597.73C54.1944 597.916 23.1616 594.078 16.9125 590.275C12.1525 587.376 10.2556 576.978 9.62629 572.182H8.9349C8.9349 572.182 10.2468 588.936 16.4959 592.739C22.745 596.542 53.7778 600.389 77.2231 600.194C83.9952 600.141 86.3264 597.73 86.2023 594.166C85.2627 596.347 82.6833 597.694 77.6397 597.73Z" fill="black"/>
<path d="M870.763 508.87C872.388 507.545 873.572 505.759 874.158 503.746C874.601 501.707 873.733 499.269 871.782 498.525C869.602 497.692 867.271 499.198 865.507 500.732C863.743 502.266 861.713 504.003 859.399 503.675C860.589 502.597 861.478 501.23 861.981 499.706C862.485 498.181 862.585 496.553 862.271 494.979C862.171 494.326 861.896 493.714 861.474 493.206C860.259 491.912 858.07 492.47 856.616 493.49C852.007 496.734 850.722 502.993 850.695 508.631C850.234 506.601 850.624 504.482 850.606 502.425C850.589 500.369 850.021 497.993 848.266 496.911C847.178 496.327 845.956 496.036 844.721 496.069C842.646 495.989 840.342 496.202 838.924 497.718C837.151 499.597 837.621 502.762 839.154 504.81C840.688 506.858 843.01 508.178 845.155 509.615C846.874 510.637 848.341 512.034 849.445 513.701C849.575 513.932 849.682 514.176 849.764 514.428H862.75C865.66 512.945 868.355 511.076 870.763 508.87Z" fill="#6C63FF"/>
<path opacity="0.1" d="M130.061 425.79C158.267 461.657 147.311 514.056 129.388 556.012C123.387 570.063 116.597 584.929 119.132 599.99C122.226 618.411 138.633 631.903 155.935 638.995C187.403 652.009 225.074 648.906 253.98 630.919C278.968 615.371 296.864 590.088 322.277 575.249C364.824 550.428 418.948 559.798 465.129 576.898C497.802 588.998 533.524 604.742 565.992 592.092C588.835 583.227 604.631 561.535 613.238 538.576C617.395 527.486 620.409 515.527 628.306 506.663C633.022 501.441 639.174 497.727 645.485 494.607C703.101 466.053 775.785 481.31 831.699 449.68C869.469 428.299 893.65 387.955 904.384 345.892C915.119 303.829 913.842 259.718 911.121 216.405C909.188 185.618 905.723 152.757 886.053 128.99C865.25 103.859 829.537 94.5066 797.263 99.2847C764.989 104.063 735.72 121.172 710.015 141.224C677.847 166.284 648.02 197.497 608.522 207.656C581.629 214.57 553.335 210.785 525.59 209.482C479.214 207.292 432.829 212.141 386.709 217.46C342.558 222.566 298.069 228.186 256.028 242.547C226.262 252.715 202.4 271.163 174.293 284.052C155.971 292.456 135.991 294.778 118.653 305.478C97.2823 318.66 77.7018 341.593 83.1974 368.417C88.3563 393.957 115.081 406.757 130.061 425.79Z" fill="#6C63FF"/>
<path opacity="0.1" d="M489.603 425.772C698.966 425.772 868.689 409.468 868.689 389.356C868.689 369.244 698.966 352.94 489.603 352.94C280.239 352.94 110.516 369.244 110.516 389.356C110.516 409.468 280.239 425.772 489.603 425.772Z" fill="#6C63FF"/>
<path opacity="0.1" d="M198.252 635.866C301.722 635.866 385.601 619.562 385.601 599.45C385.601 579.338 301.722 563.033 198.252 563.033C94.7819 563.033 10.9027 579.338 10.9027 599.45C10.9027 619.562 94.7819 635.866 198.252 635.866Z" fill="#6C63FF"/>
<path d="M389.767 378L386.798 382.317C386.798 382.317 390.033 386.634 390.344 387.175C390.654 387.716 399.784 386.909 399.784 386.909L400.59 383.674L399.243 379.897L389.767 378Z" fill="#E6E6F0"/>
<path d="M289.932 375.571L283.993 376.644L287.769 383.94L291.82 386.094L295.596 388.789L296.678 385.828L293.974 380.154L289.932 375.571Z" fill="#FDC2CC"/>
<path d="M387.073 305.407C387.073 305.407 418.646 312.96 424.576 321.364C424.576 321.364 429.975 325.956 424.576 334.315C419.178 342.674 411.626 361.574 411.626 361.574C411.626 361.574 406.228 379.924 404.074 381.271C401.92 382.619 389.502 383.7 388.42 378.612C388.42 378.612 395.432 367.549 395.432 362.416C395.432 357.283 407.035 333.003 407.035 333.003C407.035 333.003 380.593 330.033 372.226 331.922C363.858 333.81 376.011 302.438 387.073 305.407Z" fill="#565171"/>
<path opacity="0.1" d="M387.073 305.407C387.073 305.407 418.646 312.96 424.576 321.364C424.576 321.364 429.975 325.956 424.576 334.315C419.178 342.674 411.626 361.574 411.626 361.574C411.626 361.574 406.228 379.924 404.074 381.271C401.92 382.619 389.502 383.7 388.42 378.612C388.42 378.612 395.432 367.549 395.432 362.416C395.432 357.283 407.035 333.003 407.035 333.003C407.035 333.003 380.593 330.033 372.226 331.922C363.858 333.81 376.011 302.438 387.073 305.407Z" fill="black"/>
<path d="M380.593 312.694C380.531 314.263 380.363 316.027 380.123 317.924C378.395 331.664 372.766 352.098 372.766 352.098C372.766 352.098 367.102 364.242 365.48 372.07C363.858 379.897 352.796 381.821 352.796 381.821C352.796 381.821 322.57 385.367 316.365 383.984C310.16 382.601 300.41 388.035 295.588 387.22C290.766 386.404 287.761 375.075 287.761 375.075C296.13 375.124 304.412 373.377 312.048 369.951C324.458 364.287 342.274 366.981 342.274 366.981C343.603 366.595 344.839 365.942 345.906 365.061C346.973 364.18 347.849 363.09 348.479 361.858C350.367 357.806 350.367 333.251 349.826 331.629C346.281 320.991 346.573 314.165 347.593 310.185C347.934 308.447 348.701 306.82 349.826 305.451L380.593 312.694Z" fill="#565171"/>
<path opacity="0.1" d="M380.593 312.694C380.531 314.263 380.363 316.027 380.123 317.924C377.411 318.137 369.806 318.341 364.168 314.857C358.85 311.595 351.112 310.487 347.628 310.141C347.969 308.402 348.737 306.776 349.862 305.407L380.593 312.694Z" fill="black"/>
<path d="M384.325 309.316C383.066 312.862 381.134 317.02 381.134 317.02C381.134 317.02 371.153 318.367 364.133 314.05C357.112 309.733 345.784 309.192 345.784 309.192C347.619 308.066 348.86 304.645 349.631 301.648C350.062 299.954 350.399 298.238 350.642 296.507C350.642 296.507 383.829 303.253 385.211 304.334C385.725 304.76 385.176 306.905 384.325 309.316Z" fill="#E6E6F0"/>
<path d="M443.465 195.573L403.214 219.872L399.216 222.283V210.413L401.991 209.083L435.913 192.87C435.913 192.87 437.535 163.457 441.852 168.048C446.169 172.64 443.465 195.573 443.465 195.573Z" fill="#FDC2CC"/>
<path opacity="0.1" d="M403.214 219.871L399.216 222.283V210.413L401.991 209.083C402.175 212.701 402.583 216.304 403.214 219.871Z" fill="black"/>
<path d="M372.234 224.215L401.104 207.488C401.104 207.488 401.645 223.683 404.881 226.103C404.881 226.103 393.012 229.649 388.42 237.167L372.234 224.215Z" fill="#B45181"/>
<path opacity="0.1" d="M372.234 224.215L401.104 207.488C401.104 207.488 401.645 223.683 404.881 226.103C404.881 226.103 393.012 229.649 388.42 237.167L372.234 224.215Z" fill="black"/>
<path d="M443.208 238.478C443.208 238.478 429.478 244.462 420.384 246.661C418.337 247.278 416.197 247.524 414.064 247.388C407.859 246.306 415.686 238.523 415.686 238.523L418.948 238.017L436.463 235.287C436.463 235.287 438.351 208.303 441.586 210.466C444.822 212.629 443.208 238.478 443.208 238.478Z" fill="#FDC2CC"/>
<path d="M385.185 214.189C385.185 214.189 373.582 222.824 377.899 233.621C382.215 244.418 355.499 227.141 355.499 227.141C355.499 227.141 364.133 214.189 366.021 204.474C367.909 194.758 385.185 214.189 385.185 214.189Z" fill="#FDC2CC"/>
<path opacity="0.1" d="M384.325 309.316C379.307 307.426 374.061 306.204 368.724 305.682C360.924 304.795 353.78 303.297 349.64 301.648C350.071 299.954 350.408 298.238 350.651 296.507C350.651 296.507 383.837 303.253 385.22 304.334C385.725 304.76 385.176 306.905 384.325 309.316Z" fill="black"/>
<path opacity="0.1" d="M420.375 246.661C418.328 247.278 416.188 247.524 414.055 247.388C407.85 246.306 415.677 238.523 415.677 238.523L418.939 238.018C420.304 240.119 421.696 243.398 420.375 246.661Z" fill="black"/>
<path d="M366.296 219.047C366.296 219.047 355.774 218.781 351.998 223.098C348.222 227.415 349.029 239.055 349.029 239.055C349.029 239.055 348.24 262.36 354.152 275.4C354.347 275.821 354.369 276.302 354.214 276.739C354.152 276.898 354.152 276.801 354.152 276.801C354.152 276.801 350.376 293.803 346.6 296.773C342.824 299.743 354.693 303.253 368.76 304.866C382.827 306.48 388.456 310.531 388.456 310.531C388.456 310.531 390.884 307.872 391.115 301.897C391.345 295.922 387.365 252.511 387.365 252.511C387.365 252.511 402.204 256.288 411.112 251.705C411.112 251.705 415.163 253.868 418.939 247.928C422.715 241.989 416.28 235.518 416.28 235.518C416.28 235.518 410.341 241.457 393.88 233.63C377.42 225.802 371.41 218.781 366.296 219.047Z" fill="#B45181"/>
<path d="M285.616 376.112H282.38V380.704L285.616 387.991C285.616 387.991 289.932 388.797 290.207 388.797C290.482 388.797 293.983 387.991 293.983 387.991L295.065 386.103C295.065 386.103 283.187 381.502 285.616 376.112Z" fill="#E6E6F0"/>
<path d="M387.073 380.429L382.215 391.226L402.727 400.978L418.921 401.518C418.921 401.518 420.268 397.742 414.87 395.854L410.553 395.047C410.553 395.047 404.889 384.791 404.349 379.977C404.349 379.977 398.951 381.059 398.144 385.101C398.135 385.012 390.583 388.789 387.073 380.429Z" fill="#B45181"/>
<path d="M283.187 375.031L281.538 376.378L274.287 382.317L291.014 404.479C291.014 404.479 300.454 408.53 304.779 404.479C304.779 404.479 307.439 401.82 301.544 399.621C301.544 399.621 296.953 400.428 296.953 395.845C296.953 391.262 298.034 386.404 299.612 385.322C299.612 385.322 295.561 383.975 294.488 385.057C293.663 385.966 292.938 386.962 292.326 388.026C292.326 388.026 282.646 384.205 283.187 375.031Z" fill="#B45181"/>
<path opacity="0.1" d="M365.489 205.014C365.215 206.383 364.854 207.734 364.408 209.057C365.809 212.429 368.47 215.121 371.825 216.563C375.18 218.005 378.964 218.082 382.375 216.778C383.086 216.044 383.848 215.36 384.653 214.73C384.653 214.73 367.377 195.299 365.489 205.014Z" fill="black"/>
<path opacity="0.1" d="M364 241.058C364 241.058 372.367 252.121 384.511 252.396Z" fill="black"/>
<g opacity="0.1">
<path d="M414.01 251.891C413.84 251.843 413.674 251.781 413.514 251.705C413.254 251.841 412.988 251.968 412.716 252.086C413.154 252.077 413.589 252.012 414.01 251.891Z" fill="black"/>
<path d="M416.882 236.626C416.589 236.249 416.275 235.888 415.943 235.544C415.943 235.544 414.17 237.317 409.791 237.654C412.203 237.894 414.638 237.541 416.882 236.626V236.626Z" fill="black"/>
<path d="M389.767 252.511L389.821 253.087C393.38 253.747 396.997 254.044 400.617 253.974C396.961 253.841 393.328 253.351 389.767 252.511V252.511Z" fill="black"/>
<path d="M371.153 304.884C357.121 303.262 345.252 299.76 348.993 296.79C352.734 293.821 356.545 276.818 356.545 276.818C356.545 276.818 356.545 276.916 356.607 276.756C356.762 276.319 356.74 275.839 356.545 275.418C350.633 262.342 351.422 239.072 351.422 239.072C351.422 239.072 350.615 227.468 354.391 223.116C357.201 219.898 363.752 219.233 366.916 219.1C366.621 219.077 366.325 219.077 366.03 219.1C366.03 219.1 355.508 218.834 351.732 223.151C347.956 227.468 348.763 239.108 348.763 239.108C348.763 239.108 347.974 262.413 353.886 275.453C354.081 275.874 354.103 276.355 353.948 276.792C353.886 276.951 353.886 276.854 353.886 276.854C353.886 276.854 350.137 293.803 346.325 296.773C342.514 299.742 354.418 303.253 368.485 304.866C382.552 306.48 388.181 310.531 388.181 310.531C388.463 310.192 388.713 309.827 388.925 309.44C386.186 308.12 380.549 305.948 371.153 304.884Z" fill="black"/>
</g>
<path d="M377.899 217.159C385.648 217.159 391.93 210.876 391.93 203.126C391.93 195.376 385.648 189.093 377.899 189.093C370.149 189.093 363.867 195.376 363.867 203.126C363.867 210.876 370.149 217.159 377.899 217.159Z" fill="#FDC2CC"/>
<path opacity="0.1" d="M397.869 196.85C396.708 199.757 393.242 200.857 390.202 201.61C385.858 202.674 381.178 203.72 377.021 202.071C376.482 201.769 375.861 201.648 375.248 201.725C374.754 201.923 374.342 202.283 374.078 202.745C369.496 209.269 370.24 217.965 369.052 225.855C368.68 228.311 368.051 230.846 366.393 232.681C363.167 236.227 357.077 236.094 354.108 239.861C352.149 242.343 352.131 245.792 352.149 248.957C352.149 252.331 352.119 255.708 352.06 259.089C352.007 261.305 351.9 263.601 350.899 265.569C349.197 268.902 345.403 270.489 341.902 271.774C339.721 272.59 337.47 273.414 335.13 273.193C332.79 272.971 330.45 271.42 330.148 269.079C329.732 265.906 333.002 263.69 335.254 261.403C338.853 257.759 340.333 252.458 340.466 247.334C340.592 245.265 340.291 243.192 339.58 241.244C338.755 239.232 337.284 237.539 336.397 235.553C333.667 229.436 337.036 222.362 341.069 217.008C345.102 211.654 350.057 206.433 350.917 199.793C350.992 198.356 351.196 196.929 351.528 195.529C352.149 193.596 353.62 188.26 355.242 187.036C357.839 185.08 360.888 183.812 364.106 183.349C366.597 182.985 369.141 183.118 371.614 182.64C374.504 182.081 377.189 180.707 380.079 180.193C386.328 179.085 393.109 186.345 395.848 192.072C396.602 193.827 398.578 195.068 397.869 196.85Z" fill="black"/>
<path d="M397.869 196.309C396.708 199.217 393.242 200.316 390.202 201.069C385.858 202.133 381.178 203.179 377.021 201.53C376.482 201.228 375.861 201.107 375.248 201.185C374.754 201.383 374.342 201.742 374.078 202.204C369.496 208.728 370.24 217.425 369.052 225.314C368.68 227.77 368.051 230.305 366.393 232.14C363.167 235.686 357.077 235.553 354.108 239.321C352.149 241.803 352.131 245.251 352.149 248.416C352.149 251.79 352.119 255.168 352.06 258.548C352.007 260.764 351.9 263.06 350.899 265.028C349.197 268.361 345.403 269.948 341.902 271.234C339.721 272.049 337.47 272.873 335.13 272.652C332.79 272.43 330.45 270.879 330.148 268.539C329.732 265.365 333.002 263.149 335.254 260.862C338.853 257.218 340.333 251.917 340.466 246.793C340.592 244.724 340.291 242.651 339.58 240.703C338.755 238.691 337.284 236.998 336.397 235.012C333.667 228.896 337.036 221.822 341.069 216.467C345.102 211.113 350.057 205.892 350.917 199.252C350.992 197.815 351.196 196.388 351.528 194.988C352.149 193.056 353.62 187.719 355.242 186.496C357.839 184.539 360.888 183.271 364.106 182.808C366.597 182.445 369.141 182.578 371.614 182.099C374.504 181.54 377.189 180.166 380.079 179.652C386.328 178.544 393.109 185.804 395.848 191.531C396.602 193.286 398.578 194.527 397.869 196.309Z" fill="#F569BC"/>
<path d="M443.208 169.334H676.482V402.609H443.208V169.334Z" fill="#F7DF1E"/>
<path d="M504.556 364.278L522.408 353.472C525.856 359.579 528.985 364.748 536.502 364.748C543.708 364.748 548.247 361.929 548.247 350.972V276.428H570.167V351.273C570.167 373.976 556.871 384.312 537.442 384.312C519.909 384.312 509.733 375.226 504.565 364.269M582.072 361.92L599.915 351.583C604.613 359.26 610.72 364.88 621.525 364.88C630.611 364.88 636.399 360.342 636.399 354.074C636.399 346.557 630.451 343.898 620.444 339.51L614.966 337.161C599.153 330.432 588.658 321.975 588.658 304.122C588.658 287.678 601.182 275.152 620.754 275.152C634.688 275.152 644.687 280.01 651.911 292.686L634.848 303.652C631.09 296.915 627.021 294.255 620.754 294.255C614.337 294.255 610.259 298.324 610.259 303.652C610.259 310.23 614.328 312.889 623.724 316.949L629.202 319.298C647.816 327.276 658.329 335.423 658.329 353.746C658.329 373.479 642.826 384.285 621.986 384.285C601.599 384.285 588.48 374.534 582.098 361.893" fill="black"/>
<path d="M778.808 532.069C778.808 532.069 769.705 532.707 764.085 522.956C762.987 520.993 761.689 519.148 760.211 517.451C758.397 514.476 757.454 511.051 757.49 507.567C757.8 500.342 750.266 460.77 750.266 460.77C750.266 460.77 751.206 445.7 743.671 436.277C738.707 430.071 731.572 412.342 727.273 400.889C727.561 401.146 727.908 401.329 728.283 401.421L728.106 400.437H728.283L726.058 388.212C722.819 384.488 720.089 380.351 717.939 375.908L718.444 375.802L725.11 374.401C725.11 374.401 735.942 359.003 736.633 351.433H737.52H738.769C748.796 351.378 758.817 351.902 768.783 353.002V353.002C768.783 352.957 768.712 352.762 768.623 352.452C768.201 350.929 767.876 349.38 767.648 347.816H768.269L774.474 347.408C774.474 347.408 795.827 323.544 787.973 319.147C780.12 314.75 771.956 338.933 771.956 338.933L769.297 339.412L768.579 339.545C768.65 339.439 768.721 339.341 768.801 339.244C768.88 339.146 733.947 337.683 728.567 329.191C728.567 329.191 713.179 316.94 712.55 308.802C712.436 307.114 711.86 305.489 710.885 304.107C709.909 302.725 708.571 301.638 707.019 300.966C705.117 300.058 703.012 299.664 700.911 299.822L693.705 300.319L694.21 301.205H694.006C693.554 300.169 693.175 299.103 692.872 298.014H693.022C692.969 297.792 692.925 297.571 692.88 297.349C695.089 296.828 697.171 295.869 699.002 294.529C700.833 293.189 702.377 291.495 703.541 289.548C704.706 287.6 705.468 285.438 705.782 283.191C706.096 280.944 705.956 278.656 705.37 276.464C706.075 276.554 706.79 276.533 707.488 276.402C710.148 275.861 712.018 273.166 712.089 270.471C712.089 270.294 712.089 270.117 712.089 269.948C712.089 269.948 712.089 269.877 712.089 269.842C712.062 268.488 711.734 267.156 711.129 265.945C710.523 264.734 709.655 263.672 708.588 262.839C707.152 261.642 705.432 260.791 704.156 259.461C702.604 257.874 701.753 255.747 700.548 253.876C698.529 250.782 695.534 248.452 692.038 247.254C689.441 246.368 686.25 246.279 684.256 248.141C683.228 249.107 682.634 250.508 681.481 251.323C679.824 252.511 677.572 252.157 675.543 252.396C673.704 252.679 671.964 253.41 670.476 254.524C668.987 255.639 667.795 257.103 667.006 258.787C666.011 260.896 665.531 263.212 665.606 265.542C665.584 267.141 665.775 268.736 666.173 270.285C666.563 271.827 667.139 273.317 667.565 274.859C668.451 278.051 668.655 281.41 669.675 284.557C670.359 286.893 671.727 288.971 673.601 290.523L673.3 291.817C673.105 291.817 668.212 292.908 664.835 300.292C662.176 306.116 653.126 312.126 649.146 314.555C648.403 315.01 647.759 315.607 647.251 316.314C646.742 317.02 646.38 317.821 646.185 318.669C645.803 320.382 645.633 322.135 645.68 323.89C645.609 327.675 646.398 332.914 649.438 339.554C656.343 354.624 661.369 361.219 661.369 361.219C661.369 361.219 661.75 365.838 661.777 370.704C661.777 374.33 661.511 377.938 660.74 379.747C660.084 381.271 659.853 385.163 659.906 389.613C659.906 398.141 660.74 409.266 660.74 409.266C660.74 409.266 663.142 409.727 666.856 410.268L669.169 450.974C669.46 455.904 667.877 460.762 664.737 464.573C663.114 466.578 661.241 468.365 659.162 469.892C652.567 474.599 638.438 524.224 638.438 524.224C638.438 524.224 639.129 524.224 640.264 524.357L635.92 536.475C635.92 536.475 653.276 549.772 663.833 546.137C664.977 545.765 666.177 545.597 667.379 545.641C669.462 545.641 673.92 543.992 671.438 541.82C666.646 537.406 662.126 532.705 657.903 527.743C658.243 527.909 658.569 528.102 658.878 528.319V528.222L659.029 528.319C659.029 528.319 659.029 527.832 659.144 527.034L658.993 526.981C659.313 523.718 660.323 515.456 662.326 514.499C664.835 513.24 683.369 476.496 683.369 476.496L701.895 428.759C701.895 428.759 716.654 454.201 729.214 458.589V469.227C729.214 469.227 736.119 500.635 738.636 504.083C741.154 507.531 738.636 521.351 738.636 521.351C739.133 521.92 739.702 522.421 740.329 522.841L738.317 534.223C738.317 534.223 752.766 533.594 777.257 541.129C777.239 541.173 786.662 537.095 778.808 532.069ZM721.033 367.823L717.974 368.586L717.372 368.737C717.31 368.355 717.265 368.134 717.265 368.134C716.564 368.45 715.809 368.634 715.04 368.674C713.957 365.241 713.331 361.679 713.179 358.081C712.15 353.775 711.524 349.383 711.309 344.961C711.309 342.674 711.69 340.68 712.55 339.554L713.569 339.634L714.278 340.307L714.331 340.352L714.695 340.68L715.076 341.017L715.138 341.07L715.546 341.433L715.617 341.495L716.033 341.85L716.503 342.24L716.609 342.329L717.106 342.727L717.593 343.118L717.709 343.206L718.249 343.614L718.364 343.694L718.879 344.075L718.967 344.137L719.552 344.554L719.694 344.651L720.315 345.077H720.368L720.97 345.476L721.112 345.573L721.759 345.99L721.901 346.078L722.504 346.451L722.619 346.522L723.311 346.929L723.479 347.027L724.197 347.426H724.25L724.95 347.798L725.119 347.887L725.863 348.259L726.014 348.33L726.706 348.649L726.838 348.711L727.618 349.048L727.805 349.128L728.611 349.456C723.603 354.97 721.033 367.823 721.033 367.823Z" fill="url(#paint0_linear_56_17)"/>
<path d="M643.579 516.893L637.755 533.142C637.755 533.142 653.711 545.375 664.081 542.84C665.644 542.451 667.236 542.193 668.841 542.068C670.986 541.909 674.683 540.34 672.387 538.354C665.03 531.918 655.217 519.96 655.217 519.96L643.579 516.893Z" fill="#4F4D59"/>
<path d="M740.454 515.359L737.697 530.996C737.697 530.996 751.799 530.385 775.715 537.743C775.715 537.743 784.915 533.753 777.248 528.878C777.248 528.878 768.384 529.489 762.844 520.013C757.304 510.537 753.98 511.733 753.98 511.733L740.454 515.359Z" fill="#4F4D59"/>
<path d="M667.467 401.926L670.127 449.512C670.418 454.582 668.738 459.569 665.438 463.429C663.946 465.202 662.247 466.788 660.376 468.154C653.941 472.755 640.14 521.192 640.14 521.192C640.14 521.192 655.776 522.078 660.066 525.181C660.066 525.181 660.952 512.921 663.434 511.689C665.916 510.457 683.972 474.59 683.972 474.59L702.064 427.988C702.064 427.988 716.468 452.809 728.735 457.118V467.543C728.735 467.543 735.481 498.206 737.936 501.574C740.391 504.943 737.936 518.417 737.936 518.417C737.936 518.417 745.027 527.282 761.231 517.806C761.231 517.806 756.019 511.981 756.329 504.925C756.639 497.869 749.238 459.245 749.238 459.245C749.238 459.245 750.124 444.53 742.802 435.311C735.481 426.091 723.311 390.872 723.311 390.872L714.872 372.717L667.467 401.926Z" fill="#C48C96"/>
<g opacity="0.1">
<path d="M643.118 521.183C643.118 521.183 656.91 472.746 663.355 468.146C665.331 466.697 667.118 465.005 668.673 463.11C671.819 459.303 673.403 454.443 673.105 449.512L670.401 401.917L715.608 374.047L714.996 372.726L667.645 401.926L670.348 449.521C670.646 454.451 669.062 459.311 665.916 463.119C664.361 465.014 662.575 466.706 660.598 468.154C654.171 472.746 640.361 521.183 640.361 521.183C640.361 521.183 655.997 522.07 660.288 525.172C660.288 525.172 660.288 524.694 660.403 523.922C654.366 521.848 643.118 521.183 643.118 521.183Z" fill="black"/>
<path d="M740.914 518.426C740.914 518.426 743.37 504.934 740.914 501.583C738.459 498.232 731.714 467.552 731.714 467.552V457.109C719.455 452.818 705.042 427.979 705.042 427.979L703.978 430.763C708.135 437.358 719.224 453.723 728.966 457.127V467.552C728.966 467.552 735.711 498.215 738.167 501.583C740.622 504.952 738.167 518.426 738.167 518.426C738.167 518.426 741.588 522.734 749.14 522.149C743.494 521.68 740.914 518.426 740.914 518.426Z" fill="black"/>
</g>
<path d="M772.949 348.578L766.93 348.977L763.757 349.19V341.522L767.923 340.768L770.502 340.299C770.502 340.299 778.48 316.692 786.139 320.982C793.797 325.273 772.949 348.578 772.949 348.578Z" fill="#714B4F"/>
<path d="M676.385 285.382C676.385 285.382 672.396 300.709 671.173 310.203C669.949 319.697 699.679 312.047 699.679 312.047C699.679 312.047 688.333 298.253 694.777 290.896L676.385 285.382Z" fill="#714B4F"/>
<path d="M708.57 349.208L709.181 355.032L699.679 354.42L690.177 346.141L680.675 319.458L674.559 309.946L669.958 304.122L671.802 297.03C671.802 297.03 672.644 297.766 674.062 298.847C678.734 302.393 689.681 309.848 697.685 307.792C698.055 307.698 698.419 307.583 698.775 307.446L710.733 327.986L708.57 349.208Z" fill="#E6E6F0"/>
<path opacity="0.1" d="M674.24 295.231C674.24 295.231 669.338 296.117 665.961 303.51C663.372 309.166 654.615 315.034 650.706 317.401C649.96 317.857 649.313 318.457 648.803 319.166C648.293 319.876 647.93 320.68 647.736 321.532C646.947 325.025 646.646 331.54 650.936 340.91C657.682 355.626 662.583 362.062 662.583 362.062C662.583 362.062 663.807 376.777 661.972 381.068C660.137 385.358 661.972 408.965 661.972 408.965C661.972 408.965 694.157 415.099 704.891 408.965C715.625 402.83 714.092 379.224 714.092 379.224C714.092 379.224 724.206 400.685 727.884 401.297L725.739 389.338C725.739 389.338 713.782 376.458 713.17 359.907C713.17 359.907 709.492 344.882 712.559 340.902C712.559 340.902 764.369 345.192 767.436 341.513C767.436 341.513 733.407 339.98 728.195 331.7C728.195 331.7 713.17 319.741 712.559 311.772C712.469 310.276 712 308.827 711.195 307.563C710.39 306.299 709.276 305.261 707.958 304.547C705.873 303.361 703.48 302.827 701.089 303.014L694.166 303.492C694.166 303.492 706.123 324.644 705.512 327.427C704.9 330.211 706.123 352.568 706.123 352.568C706.123 352.568 692.287 322.826 686.197 319.458C680.108 316.089 673.007 302.225 673.007 302.225L674.231 295.222" fill="black"/>
<path opacity="0.1" d="M708.57 349.208L709.181 355.032L699.679 354.42L690.177 346.141L680.675 319.458L674.559 309.946L669.958 304.122L671.802 297.03C671.802 297.03 672.644 297.766 674.062 298.847L673.637 301.267C673.637 301.267 680.728 315.114 686.818 318.491C692.907 321.869 706.744 351.601 706.744 351.601C706.744 351.601 705.521 329.218 706.132 326.461C706.549 324.59 701.177 314.254 697.685 307.792C698.055 307.698 698.419 307.583 698.775 307.446L710.733 327.986L708.57 349.208Z" fill="black"/>
<path opacity="0.1" d="M766.93 348.977L763.757 349.19V341.522L767.923 340.769C766.469 342.692 766.523 346.096 766.93 348.977Z" fill="black"/>
<path d="M674.24 294.317C674.24 294.317 669.338 295.204 665.961 302.597C663.372 308.253 654.615 314.121 650.706 316.488C649.96 316.943 649.313 317.544 648.803 318.253C648.293 318.963 647.93 319.767 647.736 320.619C646.947 324.112 646.646 330.627 650.936 339.997C657.682 354.713 662.583 361.148 662.583 361.148C662.583 361.148 663.807 375.864 661.972 380.154C660.137 384.445 661.972 408.052 661.972 408.052C661.972 408.052 694.157 414.186 704.891 408.052C715.625 401.917 714.092 378.311 714.092 378.311C714.092 378.311 724.197 399.737 727.884 400.393L725.739 388.434C725.739 388.434 713.782 375.554 713.17 359.003C713.17 359.003 709.492 343.978 712.559 339.997C712.559 339.997 724.516 352.878 738.007 352.567C747.838 352.508 757.664 353.02 767.436 354.101C767.436 354.101 764.369 344.288 767.436 340.609C767.436 340.609 733.407 339.075 728.195 330.796C728.195 330.796 713.17 318.837 712.559 310.868C712.469 309.372 712 307.923 711.195 306.659C710.39 305.395 709.276 304.357 707.958 303.643C705.873 302.457 703.48 301.923 701.089 302.109L694.166 302.588C694.166 302.588 706.123 323.739 705.512 326.523C704.9 329.306 706.123 351.663 706.123 351.663C706.123 351.663 692.287 321.904 686.197 318.536C680.108 315.167 673.007 301.338 673.007 301.338L674.231 294.335" fill="#C48C96"/>
<path opacity="0.1" d="M667.467 326.505C667.467 326.505 674.825 351.326 679.115 354.402C683.405 357.478 709.465 373.107 717.132 369.428C717.132 369.428 718.976 378.63 716.246 380.775C716.246 380.775 687.66 379.658 687.429 379.552C687.429 379.552 668.726 377.096 665.659 367.903C662.592 358.711 658.914 343.082 658.914 343.082L667.467 326.505Z" fill="black"/>
<path d="M706.735 354.562C707.327 354.562 707.807 353.875 707.807 353.028C707.807 352.181 707.327 351.495 706.735 351.495C706.143 351.495 705.662 352.181 705.662 353.028C705.662 353.875 706.143 354.562 706.735 354.562Z" fill="#BA7855"/>
<path d="M709.793 365.288C710.385 365.288 710.866 364.602 710.866 363.755C710.866 362.908 710.385 362.221 709.793 362.221C709.201 362.221 708.72 362.908 708.72 363.755C708.72 364.602 709.201 365.288 709.793 365.288Z" fill="#BA7855"/>
<g opacity="0.1">
<path d="M664.126 407.715C664.126 407.715 662.282 384.108 664.126 379.818C665.969 375.527 664.737 360.812 664.737 360.812C664.737 360.812 659.836 354.376 653.09 339.66C648.791 330.29 649.101 323.775 649.89 320.282C650.084 319.43 650.447 318.626 650.957 317.916C651.467 317.207 652.114 316.607 652.86 316.151C656.769 313.758 665.517 307.916 668.115 302.26C670.02 298.111 672.405 296.011 674.124 294.964L674.24 294.291C674.24 294.291 669.338 295.177 665.961 302.57C663.372 308.226 654.615 314.095 650.706 316.461C649.96 316.917 649.313 317.517 648.803 318.226C648.293 318.936 647.93 319.74 647.736 320.592C646.947 324.085 646.646 330.601 650.936 339.971C657.682 354.686 662.583 361.122 662.583 361.122C662.583 361.122 663.807 375.837 661.972 380.128C660.137 384.418 661.972 408.025 661.972 408.025C661.972 408.025 684.965 412.404 698.562 410.055C684.832 411.695 664.126 407.715 664.126 407.715Z" fill="black"/>
<path d="M705.503 326.505C705.086 328.393 705.503 339.501 705.849 346.309C707.329 349.332 708.26 351.344 708.26 351.344C708.26 351.344 707.036 328.961 707.648 326.204C708.233 323.544 697.463 304.343 696.391 302.446L694.157 302.597C694.157 302.597 706.123 323.748 705.503 326.505Z" fill="black"/>
<path d="M740.152 352.257C726.661 352.567 714.704 339.687 714.704 339.687C714.345 340.186 714.084 340.749 713.932 341.345C717.478 344.642 727.229 352.807 738.007 352.559C747.838 352.499 757.664 353.011 767.436 354.092C767.436 354.092 767.373 353.888 767.276 353.543C758.266 352.611 749.21 352.182 740.152 352.257Z" fill="black"/>
<path d="M716.219 378.009C716.219 378.009 716.343 379.924 716.273 382.796C719.464 389.125 725.27 399.949 727.867 400.384L727.415 397.866C722.956 392.264 716.219 378.009 716.219 378.009Z" fill="black"/>
</g>
<path d="M724.817 374.915L718.302 376.289L713.161 377.371L715.918 369.703L717.842 369.224L720.829 368.479C720.829 368.479 725.119 347.018 733.708 348.552C742.297 350.085 724.817 374.915 724.817 374.915Z" fill="#714B4F"/>
<path opacity="0.1" d="M718.311 376.316L713.17 377.397L715.927 369.729L717.85 369.251C718.277 371.58 718.431 373.951 718.311 376.316Z" fill="black"/>
<path d="M667.467 325.894C667.467 325.894 674.825 350.715 679.115 353.791C683.405 356.867 709.465 372.495 717.132 368.816C717.132 368.816 718.976 378.018 716.246 380.163C716.246 380.163 687.66 379.046 687.429 378.94C687.429 378.94 668.726 376.484 665.659 367.292C662.592 358.099 658.914 342.471 658.914 342.471L667.467 325.894Z" fill="#C48C96"/>
<path opacity="0.1" d="M676.686 286.038C676.686 286.038 676.066 288.44 675.232 291.933C676.929 295.148 679.638 297.716 682.94 299.238C686.242 300.76 689.954 301.152 693.501 300.354C692.765 297.207 692.925 294.025 695.079 291.56L676.686 286.038Z" fill="black"/>
<path d="M689.565 300.142C698.71 300.142 706.123 292.728 706.123 283.582C706.123 274.437 698.71 267.023 689.565 267.023C680.421 267.023 673.007 274.437 673.007 283.582C673.007 292.728 680.421 300.142 689.565 300.142Z" fill="#714B4F"/>
<path opacity="0.1" d="M703.943 279.026C705.142 279.361 706.399 279.439 707.63 279.256C708.906 278.911 710.034 278.159 710.844 277.114C711.653 276.07 712.1 274.789 712.115 273.468C712.092 272.146 711.774 270.846 711.183 269.664C710.593 268.481 709.745 267.446 708.703 266.633C707.302 265.463 705.627 264.638 704.342 263.335C702.826 261.784 701.993 259.71 700.796 257.883C698.825 254.864 695.902 252.589 692.49 251.421C689.955 250.535 686.844 250.464 684.894 252.308C683.892 253.256 683.307 254.612 682.191 255.419C680.568 256.572 678.37 256.235 676.393 256.465C674.603 256.737 672.906 257.446 671.453 258.528C670 259.61 668.835 261.032 668.061 262.67C666.549 266.01 666.26 269.776 667.246 273.308C667.627 274.815 668.194 276.269 668.602 277.74C669.488 280.861 669.666 284.132 670.658 287.208C671.651 290.284 673.699 293.298 676.801 294.22C676.557 290.767 677.239 287.312 678.778 284.212C679.031 283.534 679.532 282.976 680.178 282.651C680.731 282.51 681.31 282.51 681.863 282.651C685.75 283.227 689.717 282.424 693.076 280.382C694.254 279.673 696.089 277.226 697.339 276.987C698.952 276.712 702.259 278.653 703.943 279.026Z" fill="black"/>
<path d="M703.943 278.414C705.142 278.749 706.399 278.828 707.63 278.644C708.906 278.299 710.034 277.547 710.844 276.502C711.653 275.458 712.1 274.177 712.115 272.856C712.092 271.534 711.774 270.235 711.183 269.052C710.593 267.869 709.745 266.834 708.703 266.021C707.302 264.851 705.627 264.027 704.342 262.723C702.826 261.172 701.993 259.098 700.796 257.272C698.825 254.252 695.902 251.977 692.49 250.809C689.955 249.923 686.844 249.852 684.894 251.696C683.892 252.644 683.307 254.001 682.191 254.807C680.568 255.96 678.37 255.623 676.393 255.853C674.603 256.126 672.906 256.834 671.453 257.916C670 258.998 668.835 260.421 668.061 262.059C666.549 265.399 666.26 269.165 667.246 272.696C667.627 274.203 668.194 275.657 668.602 277.129C669.488 280.249 669.666 283.52 670.658 286.596C671.651 289.672 673.699 292.686 676.801 293.608C676.564 290.157 677.252 286.705 678.796 283.609C679.049 282.931 679.549 282.374 680.196 282.049C680.749 281.907 681.328 281.907 681.88 282.049C685.768 282.624 689.735 281.821 693.093 279.779C694.272 279.07 696.107 276.623 697.357 276.384C698.952 276.1 702.259 278.042 703.943 278.414Z" fill="#503F43"/>
<path d="M869.123 223.763L855.615 375.084L794.896 391.927L734.346 375.084L720.855 223.763H869.123Z" fill="#E44D26"/>
<path d="M794.985 379.055L844.047 365.457L855.57 236.138H794.985V379.055Z" fill="#F16529"/>
<path d="M768.73 273.264H794.985V254.701H748.449L748.892 259.683L753.457 310.832H794.994V292.27H770.432L768.73 273.264ZM772.949 320.114H754.335L756.932 349.261L794.905 359.845H794.994V340.476H794.914L774.243 334.891L772.949 320.114Z" fill="#EBEBEB"/>
<path d="M734.656 182.631H744.088V191.948H752.712V182.631H762.144V210.856H752.712V201.406H744.088V210.856H734.656V182.631ZM774.544 191.992H766.239V182.631H792.281V191.992H783.976V210.856H774.553V191.992H774.544ZM796.421 182.631H806.26L812.314 192.55L818.359 182.631H828.198V210.856H818.802V196.868L812.314 206.902H812.154L805.657 196.868V210.856H796.421V182.631ZM832.887 182.631H842.319V201.522H855.615V210.847H832.914V182.631H832.887Z" fill="black"/>
<path d="M794.923 310.832H817.774L815.62 334.909L794.923 340.494V359.845L832.976 349.296L833.251 346.158L837.612 297.287L838.064 292.305H794.923V310.868V310.832ZM794.923 273.219V273.264H839.757L840.129 269.088L841.016 259.674L841.459 254.692H794.923V273.211V273.219Z" fill="white"/>
<path d="M325.069 335.476C323.341 330.415 320.85 323.952 318.864 322.481C318.745 322.385 318.614 322.305 318.474 322.241H318.226V315.992L313.564 316.736C312.815 314.477 312.249 312.162 311.871 309.813C312.32 310.262 312.892 310.569 313.515 310.693C314.138 310.818 314.784 310.755 315.372 310.513C315.292 310.389 315.23 310.256 315.159 310.123L315.372 310.035C314.638 308.739 314.25 307.277 314.246 305.788C314.285 304.43 314.502 303.083 314.893 301.782C315.727 298.9 317.136 296.206 317.925 293.316C318.429 291.45 318.668 289.522 318.634 287.589C318.658 284.315 317.911 281.08 316.453 278.148C316.092 277.304 315.525 276.564 314.805 275.994C314.149 275.631 313.474 275.302 312.784 275.01C311.628 274.231 310.632 273.238 309.85 272.085C306.538 268.053 302.106 265.094 297.112 263.583C295.812 263.101 294.403 262.99 293.044 263.264C289.915 264.151 288.771 267.989 286.236 270.019C283.993 271.792 280.918 271.996 278.117 272.599C275.241 273.088 272.594 274.475 270.556 276.561C269.23 278.077 268.508 280.027 268.526 282.04C268.449 282.979 268.616 283.922 269.008 284.779C269.401 285.636 270.007 286.378 270.768 286.933C271.635 287.503 272.617 287.874 273.643 288.02C274.67 288.165 275.716 288.082 276.707 287.775C275.933 290.449 275.72 293.254 276.081 296.014C276.442 298.774 277.37 301.429 278.805 303.814C280.241 306.199 282.154 308.261 284.424 309.871C286.694 311.482 289.273 312.606 291.998 313.173L292.547 314.148C294.224 317.275 295.495 320.602 296.332 324.05C292.042 326.487 287.353 328.766 284.525 328.978C284.413 330.084 284.208 331.178 283.914 332.25C283.253 334.94 281.982 337.442 280.2 339.563C276.353 343.889 259.041 376.6 259.041 376.6C259.041 376.6 258.492 377.903 257.605 380.146C246.853 381.466 229.311 383.372 224.41 382.388L205.175 364.109C205.175 364.109 198.97 368.852 199.502 374.614L196.036 371.316C196.036 371.316 177.758 385.261 206.62 394.365L250.532 399.462C246.348 412.085 242.448 426.774 243.653 434.77H244.017C244.857 434.769 245.695 434.703 246.525 434.575L246.446 435.993L242.217 511.725C242.217 511.725 241.251 525.669 254.237 531.927C254.237 531.927 270.112 578.582 263.854 583.874C263.854 583.874 264.599 584.264 265.849 584.814L252.792 596.338C252.792 596.338 243.175 598.741 237.883 598.262C236.953 598.135 236.009 598.355 235.231 598.88C234.452 599.405 233.895 600.198 233.664 601.107C233.664 601.205 233.664 601.302 233.61 601.409V601.533C233.61 601.63 233.61 601.737 233.61 601.843C233.61 601.95 233.61 601.923 233.61 601.958C233.61 601.994 233.61 602.136 233.61 602.224V602.34C233.61 602.446 233.61 602.544 233.673 602.65V602.765C233.702 602.877 233.738 602.987 233.779 603.093V603.2C233.823 603.306 233.876 603.412 233.93 603.519V603.59C233.992 603.696 234.054 603.802 234.125 603.909L234.187 603.997C234.263 604.11 234.349 604.222 234.444 604.334L234.515 604.423C234.612 604.538 234.719 604.644 234.834 604.76H234.887L235.241 605.061L235.321 605.123L235.756 605.433L235.862 605.504L236.367 605.797H236.447L236.988 606.063H237.067L237.697 606.32L237.83 606.373L238.53 606.604H238.645L239.399 606.799H239.461L240.347 606.967H240.516L241.402 607.1H241.57L242.59 607.198C244.566 607.348 247.234 607.401 250.319 607.393C250.319 607.393 250.319 607.472 250.319 607.508C250.319 607.543 250.319 607.685 250.319 607.774V607.889C250.319 607.995 250.319 608.093 250.381 608.199V608.314C250.411 608.427 250.446 608.536 250.488 608.642V608.749C250.532 608.855 250.585 608.962 250.638 609.068V609.139C250.7 609.245 250.762 609.352 250.833 609.458L250.895 609.547C250.972 609.659 251.058 609.771 251.152 609.883L251.223 609.972C251.321 610.087 251.427 610.194 251.542 610.309H251.587L251.941 610.61L252.021 610.672L252.455 610.983L252.562 611.054L253.058 611.346H253.138L253.679 611.612H253.758L254.388 611.869L254.521 611.922L255.221 612.153H255.336L256.09 612.348H256.152L257.038 612.516H257.206L258.093 612.649H258.261L259.281 612.747C271.788 613.713 311.702 610.823 311.702 610.823V610.708V610.566C312.101 608.704 314.016 597.881 307.208 589.876C307.412 589.663 307.607 589.441 307.793 589.211C307.793 589.211 302.475 580.071 305.391 577.19C308.307 574.309 291.306 524.729 291.306 524.729C291.306 524.729 282.167 510.297 287.459 493.942C292.751 477.587 286.981 459.795 286.981 459.795C286.981 459.795 299.612 456.054 299.842 440.514C299.842 440.044 299.842 439.557 299.842 439.069C300.106 439.108 300.373 439.126 300.64 439.123C300.817 439.135 300.995 439.135 301.172 439.123C301.172 439.123 298.77 430.462 301.65 424.212C304.531 417.962 310.789 423.733 316.56 398.238C320.735 379.791 324.404 358.578 326.124 348.25C326.83 343.97 326.468 339.582 325.069 335.476V335.476ZM215.315 389.551L210.928 385.385C212.381 385.987 213.994 386.572 215.794 387.158L232.325 389.099C224.95 389.764 218.063 390.136 215.315 389.578V389.551Z" fill="url(#paint1_linear_56_17)"/>
<path d="M257.18 387.122C257.18 387.122 223.16 391.847 216.069 390.429L197.171 372.469C197.171 372.469 179.212 386.174 207.568 395.154L260.486 401.297L257.18 387.122Z" fill="#FDC2CC"/>
<path opacity="0.05" d="M257.18 387.122C257.18 387.122 223.16 391.847 216.069 390.429L197.171 372.469C197.171 372.469 179.212 386.174 207.568 395.154L260.486 401.297L257.18 387.122Z" fill="black"/>
<path d="M190.585 399.045L117.067 378.656L100.686 194.891H280.705L264.307 378.63L190.585 399.045Z" fill="#264DE4"/>
<path d="M250.266 366.937L264.28 209.925H190.709V383.417L250.266 366.937Z" fill="#2965F1"/>
<path d="M138.287 278.051L140.308 300.585H190.744V278.051H138.287ZM134.227 232.433L136.275 254.967H190.735V232.433H134.183H134.227ZM190.735 336.584H190.638L165.535 329.803L163.931 311.825H141.265L144.421 347.213L190.585 360.058H190.691L190.735 336.584Z" fill="#EBEBEB"/>
<path d="M143.056 144.929H170.348V156.347H154.464V167.765H170.348V179.182H143.056V144.929ZM175.853 144.929H203.145V154.858H187.225V156.843H203.109V179.679H175.808V169.254H191.693V167.268H175.808V144.929H175.853ZM208.649 144.929H235.942V154.858H219.978V156.843H235.862V179.679H208.561V169.254H224.445V167.268H208.561V144.929H208.649Z" fill="black"/>
<path d="M243.006 278.051L247.075 232.433H190.585V254.967H222.344L220.297 278.015H190.585V300.549H218.338L215.679 329.803L190.585 336.602V360.049L236.784 347.24L237.121 343.428L242.439 284.088L242.989 278.033L243.006 278.051Z" fill="white"/>
<path d="M269.474 578.972L252.934 593.617C252.934 593.617 243.485 595.984 238.291 595.505C233.096 595.026 230.73 603.536 243.015 604.485C255.301 605.433 294.515 602.597 294.515 602.597C294.515 602.597 298.291 587.473 286.954 578.972H269.474Z" fill="#47465A"/>
<path opacity="0.05" d="M269.474 578.972L252.934 593.617C252.934 593.617 243.485 595.984 238.291 595.505C233.096 595.026 230.73 603.536 243.015 604.485C255.301 605.433 294.515 602.597 294.515 602.597C294.515 602.597 298.291 587.473 286.954 578.972H269.474Z" fill="black"/>
<path opacity="0.3" d="M295.1 596.063C295.072 597.787 294.873 599.503 294.506 601.187C294.506 601.187 255.292 604.024 243.006 603.075C237.094 602.623 234.586 600.416 234.142 598.306C233.602 600.735 235.747 603.935 243.006 604.512C255.292 605.46 294.506 602.623 294.506 602.623C294.968 600.469 295.167 598.266 295.1 596.063Z" fill="white"/>
<path d="M288.833 311.089C288.833 311.089 299.231 325.734 295.446 335.662C291.661 345.591 315.292 325.264 315.292 325.264C315.292 325.264 307.731 311.976 311.516 297.792L288.833 311.089Z" fill="#FDC2CC"/>
<path d="M285.997 584.646L269.474 599.29C269.474 599.29 260.025 601.657 254.831 601.178C249.637 600.699 247.27 609.21 259.555 610.158C271.841 611.107 311.055 608.27 311.055 608.27C311.055 608.27 314.831 593.147 303.494 584.646H285.997Z" fill="#47465A"/>
<path d="M290.748 581.339C288.284 584.38 284.809 585.55 281.175 585.727C272.913 586.117 263.819 581.339 263.819 581.339C269.962 576.144 254.37 530.305 254.37 530.305C241.615 524.162 242.554 510.457 242.554 510.457L246.685 436.082L247.731 417.395L260.965 409.364L271.389 417.342L281.281 424.93C281.925 427.344 282.341 429.813 282.522 432.305C283.674 449.671 269.944 453.758 269.944 453.758C269.944 453.758 275.617 471.239 270.414 487.311C265.211 503.383 274.19 517.557 274.19 517.557C274.19 517.557 291.2 566.703 288.372 569.54C285.545 572.377 290.748 581.339 290.748 581.339Z" fill="#565171"/>
<path opacity="0.05" d="M290.748 581.339C288.284 584.38 284.809 585.55 281.175 585.727C272.913 586.117 263.819 581.339 263.819 581.339C269.962 576.144 254.37 530.305 254.37 530.305C241.615 524.162 242.554 510.457 242.554 510.457L246.685 436.082L247.731 417.395L260.965 409.364L271.389 417.342L281.281 424.93C281.925 427.344 282.341 429.813 282.522 432.305C283.674 449.671 269.944 453.758 269.944 453.758C269.944 453.758 275.617 471.239 270.414 487.311C265.211 503.383 274.19 517.557 274.19 517.557C274.19 517.557 291.2 566.703 288.372 569.54C285.545 572.377 290.748 581.339 290.748 581.339Z" fill="black"/>
<path d="M307.261 587.004C299.231 596.923 280.333 587.004 280.333 587.004C280.713 586.653 280.997 586.21 281.157 585.718C284.623 576.295 269.465 531.245 269.465 531.245C256.71 525.101 255.283 510.457 255.283 510.457L251.941 434.734L251.507 424.93L271.389 417.342L277.496 415.01L297.839 430.604C298.712 433.834 299.142 437.168 299.115 440.514C298.858 455.77 286.475 459.458 286.475 459.458C286.475 459.458 292.148 476.939 286.945 493.011C281.742 509.083 290.748 523.213 290.748 523.213C290.748 523.213 307.758 572.359 304.93 575.196C302.103 578.033 307.261 587.004 307.261 587.004Z" fill="#565171"/>
<path opacity="0.1" d="M299.115 440.514C295.029 439.929 286.759 435.009 282.513 432.341C280.891 431.322 279.854 430.639 279.854 430.639C279.854 430.639 275.599 418.822 264.262 427.802C260.574 430.798 256.409 433.153 251.941 434.77C250.234 435.374 248.475 435.817 246.685 436.091L247.731 417.404L260.965 409.373L271.389 417.351L277.496 415.019L297.839 430.604C298.712 433.834 299.142 437.168 299.115 440.514V440.514Z" fill="black"/>
<path d="M324.688 349.837C323.004 359.978 319.37 380.864 315.292 398.939C309.619 423.982 303.477 418.308 300.649 424.451C297.821 430.595 300.179 439.096 300.179 439.096C295.455 439.566 279.863 429.176 279.863 429.176C279.863 429.176 275.608 417.36 264.271 426.34C252.934 435.32 243.955 434.841 243.955 434.841C241.588 419.248 259.077 377.663 259.077 377.663C259.077 377.663 276.087 345.529 279.863 341.318C281.615 339.237 282.865 336.78 283.515 334.138C283.805 333.087 284.006 332.013 284.118 330.929C290.26 330.459 305.391 320.061 305.391 320.061L317.207 318.172V324.316C317.347 324.378 317.478 324.459 317.597 324.555C319.538 326.035 322.029 332.347 323.686 337.32C325.044 341.347 325.388 345.646 324.688 349.837Z" fill="#E1A0A7"/>
<path d="M269.474 394.214L263.367 393.505L216.556 388.071C188.191 379.091 206.159 365.386 206.159 365.386L225.057 383.346C230.508 384.436 251.897 381.892 261.479 380.686C264.351 380.314 266.168 380.066 266.168 380.066L269.474 394.214Z" fill="#FDC2CC"/>
<path opacity="0.1" d="M315.292 330.423C315.292 330.423 303.007 320.504 284.543 352.629C266.079 384.755 261.86 379.561 261.86 379.561C261.86 379.561 265.636 393.744 263.748 396.572C263.748 396.572 276.503 395.623 281.228 396.572C285.952 397.52 315.248 360.661 315.248 360.661C315.248 360.661 330.414 339.873 315.292 330.423Z" fill="black"/>
<path opacity="0.1" d="M314.822 328.535C314.822 328.535 302.537 318.616 284.109 350.741C265.68 382.867 261.426 377.672 261.426 377.672C261.426 377.672 276.069 393.735 280.794 394.684C285.518 395.632 314.814 358.773 314.814 358.773C314.814 358.773 329.944 337.985 314.822 328.535Z" fill="black"/>
<path opacity="0.1" d="M263.358 393.531C263.553 390.03 262.232 383.878 261.47 380.686C264.342 380.314 266.159 380.066 266.159 380.066L269.465 394.249L263.358 393.531Z" fill="black"/>
<path d="M315.292 329.475C315.292 329.475 303.007 319.555 284.543 351.69C266.079 383.824 261.86 378.621 261.86 378.621C261.86 378.621 265.636 392.804 263.748 395.632C263.748 395.632 276.503 394.684 281.228 395.632C285.952 396.581 315.248 359.721 315.248 359.721C315.248 359.721 330.414 338.925 315.292 329.475Z" fill="#E1A0A7"/>
<path opacity="0.1" d="M312.021 298.759L289.303 311.976C290.264 313.37 291.152 314.814 291.962 316.302C293.269 316.567 294.6 316.701 295.933 316.701C301.987 316.701 304.797 310.345 308.458 306.063C308.192 302.659 310.975 302.57 312.021 298.759Z" fill="black"/>
<path d="M295.446 315.779C306.407 315.779 315.292 306.892 315.292 295.931C315.292 284.969 306.407 276.083 295.446 276.083C284.485 276.083 275.599 284.969 275.599 295.931C275.599 306.892 284.485 315.779 295.446 315.779Z" fill="#FDC2CC"/>
<path opacity="0.1" d="M270.361 279.877C272.362 277.824 274.963 276.459 277.789 275.976C280.545 275.382 283.568 275.205 285.766 273.441C288.257 271.446 289.374 267.652 292.45 266.801C293.786 266.534 295.17 266.645 296.447 267.12C301.354 268.604 305.71 271.51 308.963 275.471C309.733 276.608 310.714 277.586 311.853 278.352C312.531 278.639 313.194 278.961 313.838 279.318C314.544 279.879 315.099 280.607 315.452 281.437C317.666 285.911 318.177 291.037 316.888 295.86C316.117 298.705 314.734 301.347 313.909 304.184C313.085 307.021 312.881 310.23 314.379 312.765C312.926 313.51 311.091 312.57 310.178 311.214C309.265 309.857 308.99 308.191 308.511 306.622C307.57 303.542 305.797 300.781 303.388 298.643C301.899 297.331 299.24 296.445 298.202 298.138C297.804 298.794 297.83 299.636 297.484 300.319C296.811 301.657 294.825 301.923 293.558 301.205C292.309 300.344 291.433 299.042 291.102 297.562C289.161 290.975 285.837 286.836 278.799 289.646C276.14 290.692 273.082 291.419 270.556 289.646C267.32 287.27 267.967 282.563 270.361 279.877Z" fill="black"/>
<path d="M270.361 279.398C272.362 277.345 274.963 275.98 277.789 275.498C280.545 274.904 283.568 274.726 285.766 272.962C288.257 270.968 289.374 267.174 292.45 266.323C293.786 266.055 295.17 266.166 296.447 266.642C301.354 268.125 305.71 271.031 308.963 274.992C309.733 276.129 310.714 277.107 311.853 277.873C312.531 278.16 313.194 278.483 313.838 278.84C314.544 279.4 315.099 280.129 315.452 280.958C317.666 285.432 318.177 290.559 316.888 295.381C316.117 298.227 314.734 300.868 313.909 303.705C313.085 306.542 312.881 309.751 314.379 312.286C312.926 313.031 311.091 312.091 310.178 310.735C309.265 309.379 308.99 307.712 308.511 306.143C307.57 303.063 305.797 300.302 303.388 298.165C301.899 296.853 299.24 295.966 298.202 297.659C297.804 298.315 297.83 299.157 297.484 299.84C296.811 301.179 294.825 301.445 293.558 300.727C292.309 299.865 291.433 298.564 291.102 297.083C289.161 290.497 285.837 286.357 278.799 289.167C276.14 290.213 273.082 290.94 270.556 289.167C267.32 286.8 267.967 282.093 270.361 279.398Z" fill="#8F5A6A"/>
<path opacity="0.05" d="M317.57 324.519H307.971C307.971 324.519 289.072 333.969 288.603 333.499C288.284 333.18 285.358 333.73 283.506 334.111C283.796 333.06 283.998 331.987 284.109 330.902C290.251 330.432 305.382 320.034 305.382 320.034L317.198 318.146V324.289C317.331 324.35 317.456 324.428 317.57 324.519V324.519Z" fill="black"/>
<path opacity="0.3" d="M311.631 601.728C311.603 603.451 311.404 605.168 311.037 606.852C311.037 606.852 271.823 609.689 259.538 608.74C253.625 608.288 251.117 606.081 250.674 603.971C250.133 606.4 252.278 609.6 259.538 610.176C271.823 611.125 311.037 608.288 311.037 608.288C311.499 606.133 311.699 603.931 311.631 601.728Z" fill="white"/>
<g opacity="0.05">
<path d="M259.777 425.87C253.404 430.923 247.766 432.961 244.061 433.848C244.061 434.202 244.132 434.548 244.185 434.885C244.185 434.885 253.164 435.355 264.502 426.384C266.258 424.878 268.335 423.793 270.573 423.21C268.1 421.996 264.572 422.076 259.777 425.87Z" fill="black"/>
<path d="M323.899 337.276C322.206 332.303 319.751 326 317.81 324.511C317.69 324.414 317.559 324.334 317.42 324.271C317.42 324.271 313.511 324.404 313.643 324.511C315.585 325.991 317.482 331.833 319.175 336.797C320.547 340.833 320.9 345.145 320.203 349.35C318.519 359.491 314.884 380.376 310.807 398.451C305.134 423.494 298.991 417.821 296.164 423.964C293.841 428.999 295.003 435.612 295.508 437.837C297.036 438.602 298.711 439.028 300.418 439.087C300.418 439.087 298.052 430.586 300.888 424.443C303.725 418.299 309.867 423.973 315.532 398.93C319.636 380.81 323.243 359.925 324.927 349.828C325.624 345.623 325.271 341.311 323.899 337.276V337.276Z" fill="black"/>
</g>
<path d="M378.812 425.542C380.436 424.217 381.62 422.43 382.206 420.418C382.65 418.379 381.781 415.941 379.831 415.197C377.65 414.363 375.319 415.87 373.555 417.404C371.791 418.938 369.761 420.675 367.448 420.347C368.637 419.269 369.527 417.901 370.03 416.377C370.533 414.853 370.633 413.225 370.32 411.651C370.22 410.998 369.944 410.385 369.522 409.878C368.308 408.584 366.118 409.142 364.665 410.162C360.055 413.406 358.77 419.664 358.743 425.302C358.283 423.272 358.673 421.154 358.655 419.097C358.637 417.041 358.07 414.665 356.315 413.583C355.226 412.998 354.004 412.708 352.769 412.741C350.695 412.661 348.39 412.874 346.972 414.39C345.199 416.269 345.669 419.434 347.203 421.482C348.736 423.53 351.058 424.85 353.203 426.286C354.923 427.309 356.389 428.705 357.494 430.373C357.624 430.604 357.73 430.848 357.813 431.1H370.799C373.708 429.617 376.403 427.748 378.812 425.542V425.542Z" fill="#6C63FF"/>
<path d="M402.665 591.995C404.73 590.071 406.671 587.801 407.274 585.045C407.877 582.288 406.698 578.972 404.056 577.953C401.105 576.818 397.94 578.839 395.547 580.94C393.153 583.041 390.406 585.373 387.277 584.929C388.888 583.468 390.094 581.613 390.776 579.547C391.458 577.481 391.593 575.273 391.168 573.139C391.031 572.258 390.657 571.431 390.087 570.746C388.447 568.973 385.468 569.744 383.509 571.127C377.305 575.559 375.532 584.007 375.488 591.649C374.858 588.892 375.39 586.02 375.372 583.192C375.355 580.364 374.583 577.235 372.199 575.71C370.714 574.912 369.044 574.52 367.359 574.575C364.549 574.469 361.42 574.753 359.506 576.809C357.121 579.362 357.733 583.644 359.816 586.454C361.899 589.264 365.046 591.028 367.944 592.97C370.271 594.357 372.256 596.25 373.75 598.51C373.927 598.826 374.073 599.158 374.185 599.503H391.797C395.742 597.501 399.397 594.976 402.665 591.995V591.995Z" fill="#6C63FF"/>
</g>
<defs>
<linearGradient id="paint0_linear_56_17" x1="712.789" y1="546.758" x2="712.789" y2="246.643" gradientUnits="userSpaceOnUse">
<stop stop-color="#808080" stop-opacity="0.25"/>
<stop offset="0.54" stop-color="#808080" stop-opacity="0.12"/>
<stop offset="1" stop-color="#808080" stop-opacity="0.1"/>
</linearGradient>
<linearGradient id="paint1_linear_56_17" x1="258.421" y1="613.429" x2="258.421" y2="263.087" gradientUnits="userSpaceOnUse">
<stop stop-color="#808080" stop-opacity="0.25"/>
<stop offset="0.54" stop-color="#808080" stop-opacity="0.12"/>
<stop offset="1" stop-color="#808080" stop-opacity="0.1"/>
</linearGradient>
<clipPath id="clip0_56_17">
<rect width="913" height="647" fill="white"/>
</clipPath>
</defs>
</svg>
